<?xml version="1.0" encoding="utf-8"?>
<!-- Generator: Adobe Illustrator 24.2.3, SVG Export Plug-In . SVG Version: 6.00 Build 0)  -->
<svg version="1.1" id="Layer_3" xmlns="http://www.w3.org/2000/svg" xmlns:xlink="http://www.w3.org/1999/xlink" x="0px" y="0px"
	 viewBox="0 0 3384.1 435.1" style="enable-background:new 0 0 3384.1 435.1;" xml:space="preserve">
<style type="text/css">
	.st0{fill:#414141;}
	.st1{fill:#F15A2B;}
	.st2{fill:#FFFFFF;}
	.st3{fill:#828383;}
</style>
<g>
	<g>
		<path class="st0" d="M647.4,92.9c48.1,0,96.2,23,110,78.8h-50.9c-12.1-23.3-31.5-32.5-59.2-32.5c-45.3,0-70.9,33.9-70.9,76.7
			c0,45.6,27.7,76.4,70.9,76.4c33.2,0,57.4-9.9,67.8-45.9h-66.1v-43.2h113.5c1.4,23,0.7,45.2-7.3,67.1
			c-18.3,48.3-61.6,68.5-107.9,68.5c-64,0-123.5-43.5-123.5-123S583.7,92.9,647.4,92.9z"/>
		<path class="st0" d="M1021.7,328.2v7.2h-55.3l-49.8-79.1h-43.3v79.1h-51.9V95.6c34.6,0,68.8-0.3,103.4,0
			c55.3,0,85.4,39.7,85.4,82.2c0,30.5-15.6,57.2-43.2,70.6L1021.7,328.2z M924.5,214.1c21.8,0,36-16.8,35.6-37.3
			c0-20.2-13.5-36.3-35.6-36.3h-51.9v73.7H924.5z"/>
		<path class="st0" d="M1132.2,296l-18.7,39.7h-54v-6.9l111.4-235h23.9l110.7,235v6.9h-53.6l-19-39.7H1132.2z M1149.2,252.9h67.1
			l-33.6-79.1L1149.2,252.9z"/>
		<path class="st0" d="M1409.1,231.3l25.6-58.7l32.5-76.7h55v7.5l-103.1,232h-21.5l-104.1-232v-7.5h55l32.5,76.3l27,59.1H1409.1z"/>
		<path class="st0" d="M1571.4,335.8V95.3h51.9v240.5H1571.4z"/>
		<path class="st0" d="M1672.7,140.5V95.9h203.8v44.5h-76.6v195.3h-50.2V140.5H1672.7z"/>
		<path class="st0" d="M2018.1,192.9l23.9-47.6l29.1-49.3h55v7.5l-83,136.4v95.9h-51.9v-95.9l-83.4-136.4v-7.5h55.7l30.1,51
			l22.8,45.9H2018.1z"/>
	</g>
	<g>
		<path class="st1" d="M395.3,293.4c0.1,19.8-13.7,44.3-30.9,54.3l-134.1,78.7c-17.1,10-45.2,10.2-62.4,0.4L32.7,350
			c-17.2-9.8-31.5-34-31.6-53.9L0,140.6c-0.1-19.8,13.7-44.3,30.8-54.3L165,7.6c17.1-10,45.2-10.2,62.4-0.4L362.6,84
			c17.2,9.8,31.5,34,31.6,53.9L395.3,293.4L395.3,293.4z"/>
		<path class="st2" d="M159.7,181h177.6v-50.2H160.1c-25.3,0-46.3,8.7-62.4,25.9C59.1,198.1,58,302.3,58,302.3h277.9V208H286v44.1
			H111.3c1.1-16.4,8.6-45.8,22.8-61C140.5,184.2,148.7,181,159.7,181L159.7,181z"/>
	</g>
	<g>
		<path class="st3" d="M2299.2,123.2v85.7h104v21.9h-104v102.9h-23.5V101.3h132.5v21.9H2299.2z"/>
		<path class="st3" d="M2445.1,217.5c0-66.4,53-120.2,121.4-120.2s121.4,53.8,121.4,120.2c0,66.4-53,120.2-121.4,120.2
			S2445.1,283.9,2445.1,217.5z M2664.4,217.5c0-54.1-42.3-97.6-97.9-97.6s-97.9,43.5-97.9,97.6c0,54.1,42.3,97.6,97.9,97.6
			S2664.4,271.6,2664.4,217.5z"/>
		<path class="st3" d="M2827.4,240.7h-65.7v93h-23.5V101.3h93.9c38.9,0,70.4,31.2,70.4,69.7c0,31.5-21.5,58.4-50.6,66.7l57.3,96
			h-26.8L2827.4,240.7z M2761.6,218.8h70.4c25.8,0,46.9-21.6,46.9-47.8c0-26.6-21.1-47.8-46.9-47.8h-70.4V218.8z"/>
		<path class="st3" d="M3167.4,333.7h-23.5V136.5l-82.2,136.2h-3.4l-82.2-136.2v197.3h-23.5V101.3h29.2l78.1,129.5l78.1-129.5h29.2
			V333.7z"/>
		<path class="st3" d="M3214.4,280.9l20.1-11.6c8.4,27.9,30.5,45.8,67.4,45.8c35.5,0,55.3-16.9,55.3-41.8
			c0-26.9-23.1-35.5-57.7-46.8c-38.2-12.6-75.1-22.6-75.1-65.4c0-40.8,33.2-63.8,72.1-63.8c38.6,0,65.4,22.6,77.5,50.1l-19.8,11
			c-8.7-20.9-26.8-38.5-57.7-38.5c-28.2,0-48.6,14.6-48.6,40.2c0,25.2,20.1,33.2,52,43.5c42.6,13.9,80.8,25.9,80.8,69.1
			c0,39.8-32.2,65.1-79.1,65.1C3258.3,337.7,3226.4,316.1,3214.4,280.9z"/>
	</g>
</g>
</svg>
